<svg width="15" height="14" viewBox="0 0 15 14" fill="none" xmlns="http://www.w3.org/2000/svg">
<path fill-rule="evenodd" clip-rule="evenodd" d="M9.50398 1.89154H4.75198C3.1117 1.89154 1.78198 3.19738 1.78198 4.80821V9.47487C1.78198 11.0857 3.1117 12.3915 4.75198 12.3915H9.50398C11.1443 12.3915 12.474 11.0857 12.474 9.47487V4.80821C12.474 3.19738 11.1443 1.89154 9.50398 1.89154ZM11.4345 9.47487C11.4312 10.5206 10.5688 11.3675 9.50398 11.3707H4.75198C3.68715 11.3675 2.82474 10.5206 2.82148 9.47487V4.80821C2.82474 3.76249 3.68715 2.91558 4.75198 2.91237H9.50398C10.5688 2.91558 11.4312 3.76249 11.4345 4.80821V9.47487ZM9.94948 4.95404C10.2775 4.95404 10.5435 4.69287 10.5435 4.37071C10.5435 4.04854 10.2775 3.78737 9.94948 3.78737C9.62142 3.78737 9.35548 4.04854 9.35548 4.37071C9.35548 4.69287 9.62142 4.95404 9.94948 4.95404ZM7.12798 4.51654C5.65173 4.51654 4.45498 5.69179 4.45498 7.14154C4.45498 8.5913 5.65173 9.76654 7.12798 9.76654C8.60425 9.76654 9.80098 8.5913 9.80098 7.14154C9.80259 6.44487 9.52145 5.77629 9.01981 5.28367C8.51818 4.79105 7.8374 4.51499 7.12798 4.51654ZM5.49448 7.14154C5.49448 8.02751 6.22582 8.74571 7.12798 8.74571C8.03015 8.74571 8.76148 8.02751 8.76148 7.14154C8.76148 6.25557 8.03015 5.53737 7.12798 5.53737C6.22582 5.53737 5.49448 6.25557 5.49448 7.14154Z" fill="white"/>
</svg>
