<svg width="15" height="14" viewBox="0 0 15 14" fill="none" xmlns="http://www.w3.org/2000/svg">
<path fill-rule="evenodd" clip-rule="evenodd" d="M2.67298 1.89154C2.18089 1.89154 1.78198 2.28329 1.78198 2.76654V11.5165C1.78198 11.9998 2.18089 12.3915 2.67298 12.3915H11.583C12.0751 12.3915 12.474 11.9998 12.474 11.5165V2.76654C12.474 2.28329 12.0751 1.89154 11.583 1.89154H2.67298ZM5.06131 4.22646C5.06466 4.78427 4.63948 5.12798 4.13495 5.12552C3.65966 5.12306 3.24534 4.75146 3.24785 4.22728C3.25036 3.73427 3.64713 3.33806 4.16252 3.34955C4.68542 3.36103 5.06466 3.73756 5.06131 4.22646ZM7.29412 5.8359H5.79725H5.79641V10.8291H7.37847V10.7126C7.37847 10.491 7.37829 10.2694 7.37812 10.0476C7.37764 9.45626 7.37711 8.86424 7.38019 8.27303C7.38103 8.12947 7.38768 7.9802 7.42528 7.84317C7.56641 7.3313 8.03508 7.00072 8.55798 7.08198C8.89377 7.13361 9.11592 7.32477 9.20948 7.63568C9.26715 7.83005 9.29305 8.03923 9.29555 8.24188C9.30232 8.85298 9.30137 9.46408 9.30042 10.0752C9.30006 10.291 9.29971 10.5068 9.29971 10.7225V10.8283H10.8868V10.7086C10.8868 10.4449 10.8867 10.1813 10.8865 9.91768C10.8862 9.25881 10.8859 8.59993 10.8876 7.94082C10.8885 7.64303 10.8559 7.34938 10.7816 7.06145C10.6705 6.63322 10.4408 6.27885 10.0674 6.02294C9.80259 5.84082 9.51188 5.72352 9.18696 5.71039C9.14996 5.70888 9.11266 5.7069 9.07517 5.70491C8.90903 5.69609 8.74016 5.68713 8.58132 5.71859C8.12691 5.80801 7.72768 6.01227 7.42611 6.37236C7.39106 6.41366 7.35679 6.4556 7.30565 6.51819L7.29412 6.53237V5.8359ZM3.37488 10.8308H4.94944V5.83915H3.37488V10.8308Z" fill="white"/>
</svg>
