<svg width="266" height="209" viewBox="0 0 266 209" fill="none" xmlns="http://www.w3.org/2000/svg">
<path d="M33.8968 122C31.4968 122 30.2968 120.7 30.2968 118.1V90.35C30.2968 87.75 31.4968 86.45 33.8968 86.45C36.2968 86.45 37.4968 87.75 37.4968 90.35V112.55C37.4968 113.083 37.4468 113.767 37.3468 114.6C37.2802 115.4 37.1968 116.067 37.0968 116.6C37.9635 115.567 39.0302 115.05 40.2968 115.05H47.6468C48.8802 115.05 49.8302 115.35 50.4968 115.95C51.1635 116.55 51.4968 117.417 51.4968 118.55C51.4968 120.85 50.2135 122 47.6468 122H33.8968ZM65.2007 122.4C61.1674 122.4 58.0841 121.4 55.9507 119.4C53.8507 117.367 52.8007 114.317 52.8007 110.25V90.35C52.8007 87.75 54.0007 86.45 56.4007 86.45C58.8007 86.45 60.0007 87.75 60.0007 90.35V110.25C60.0007 112.35 60.4507 113.883 61.3507 114.85C62.2841 115.817 63.5674 116.3 65.2007 116.3C69.2007 116.3 71.2007 114.283 71.2007 110.25V90.35C71.2007 87.75 72.4007 86.45 74.8007 86.45C77.2007 86.45 78.4007 87.75 78.4007 90.35V110.25C78.4007 114.283 77.2841 117.317 75.0507 119.35C72.8174 121.383 69.5341 122.4 65.2007 122.4ZM91.9832 119.05C91.9832 121.283 90.8165 122.4 88.4832 122.4C87.3498 122.4 86.4498 122.117 85.7832 121.55C85.1165 120.983 84.7832 120.15 84.7832 119.05V98.4C84.7832 94.4667 85.6165 91.5 87.2832 89.5C88.9832 87.4667 91.4832 86.45 94.7832 86.45C97.2165 86.45 99.2332 86.95 100.833 87.95C102.433 88.95 103.5 90.3833 104.033 92.25C104.567 90.3833 105.633 88.95 107.233 87.95C108.833 86.95 110.883 86.45 113.383 86.45C116.783 86.45 119.3 87.4333 120.933 89.4C122.567 91.3333 123.383 94.3333 123.383 98.4V118.55C123.383 119.917 123.117 120.9 122.583 121.5C122.05 122.1 121.15 122.4 119.883 122.4C118.617 122.4 117.683 122.1 117.083 121.5C116.483 120.867 116.183 119.883 116.183 118.55V98C116.183 94.7 114.767 93.05 111.933 93.05C110.5 93.05 109.433 93.5333 108.733 94.5C108.033 95.4333 107.683 96.9333 107.683 99V118.05C107.683 119.417 107.417 120.4 106.883 121C106.35 121.6 105.45 121.9 104.183 121.9C102.917 121.9 101.983 121.6 101.383 121C100.783 120.367 100.483 119.383 100.483 118.05V99C100.483 95.0333 99.0665 93.05 96.2332 93.05C93.3998 93.05 91.9832 94.7 91.9832 98V119.05ZM133.948 122.4C131.481 122.4 130.248 121.283 130.248 119.05V89.8C130.248 88.6333 130.531 87.7833 131.098 87.25C131.665 86.7167 132.565 86.45 133.798 86.45C136.231 86.45 137.448 87.5667 137.448 89.8V119.05C137.448 120.183 137.165 121.033 136.598 121.6C136.065 122.133 135.181 122.4 133.948 122.4ZM151.505 119.05C151.505 121.283 150.338 122.4 148.005 122.4C146.871 122.4 145.971 122.117 145.305 121.55C144.638 120.983 144.305 120.15 144.305 119.05V98.4C144.305 94.4667 145.138 91.5 146.805 89.5C148.505 87.4667 151.005 86.45 154.305 86.45C156.738 86.45 158.755 86.95 160.355 87.95C161.955 88.95 163.021 90.3833 163.555 92.25C164.088 90.3833 165.155 88.95 166.755 87.95C168.355 86.95 170.405 86.45 172.905 86.45C176.305 86.45 178.821 87.4333 180.455 89.4C182.088 91.3333 182.905 94.3333 182.905 98.4V118.55C182.905 119.917 182.638 120.9 182.105 121.5C181.571 122.1 180.671 122.4 179.405 122.4C178.138 122.4 177.205 122.1 176.605 121.5C176.005 120.867 175.705 119.883 175.705 118.55V98C175.705 94.7 174.288 93.05 171.455 93.05C170.021 93.05 168.955 93.5333 168.255 94.5C167.555 95.4333 167.205 96.9333 167.205 99V118.05C167.205 119.417 166.938 120.4 166.405 121C165.871 121.6 164.971 121.9 163.705 121.9C162.438 121.9 161.505 121.6 160.905 121C160.305 120.367 160.005 119.383 160.005 118.05V99C160.005 95.0333 158.588 93.05 155.755 93.05C152.921 93.05 151.505 94.7 151.505 98V119.05ZM193.469 122.4C191.003 122.4 189.769 121.283 189.769 119.05V89.8C189.769 88.6333 190.053 87.7833 190.619 87.25C191.186 86.7167 192.086 86.45 193.319 86.45C195.753 86.45 196.969 87.5667 196.969 89.8V119.05C196.969 120.183 196.686 121.033 196.119 121.6C195.586 122.133 194.703 122.4 193.469 122.4ZM206.404 122.35C205.437 122.35 204.571 122.05 203.804 121.45C203.071 120.817 202.704 120.117 202.704 119.35C202.704 118.75 202.954 117.883 203.454 116.75C203.954 115.617 204.654 114.317 205.554 112.85C206.454 111.383 207.471 109.85 208.604 108.25C209.771 106.617 211.004 105.017 212.304 103.45L203.804 92.2C203.304 91.5333 203.054 90.8 203.054 90C203.054 88.9667 203.387 88.1167 204.054 87.45C204.754 86.7833 205.621 86.45 206.654 86.45C208.021 86.45 209.171 87.05 210.104 88.25L218.154 98.75C218.754 97.95 219.437 97 220.204 95.9C220.971 94.8 221.737 93.6667 222.504 92.5C223.271 91.3333 223.954 90.2333 224.554 89.2C225.587 87.4 226.721 86.5 227.954 86.5C229.021 86.5 229.871 86.7833 230.504 87.35C231.171 87.8833 231.504 88.6167 231.504 89.55C231.504 90.15 231.371 90.8 231.104 91.5C230.604 92.9 229.587 94.65 228.054 96.75C226.521 98.85 224.537 101.25 222.104 103.95L231.754 116.55C232.054 116.917 232.254 117.283 232.354 117.65C232.487 118.017 232.554 118.417 232.554 118.85C232.554 119.85 232.204 120.7 231.504 121.4C230.837 122.067 230.021 122.4 229.054 122.4C227.421 122.4 226.054 121.667 224.954 120.2L216.504 109C215.637 110.267 214.871 111.433 214.204 112.5C213.537 113.533 212.837 114.65 212.104 115.85C211.371 117.017 210.504 118.433 209.504 120.1C208.971 120.933 208.487 121.517 208.054 121.85C207.621 122.183 207.071 122.35 206.404 122.35Z" fill="#0015FF"/>
<path d="M39.3253 122C36.9253 122 35.7253 120.7 35.7253 118.1V90.35C35.7253 87.75 36.9253 86.45 39.3253 86.45C41.7253 86.45 42.9253 87.75 42.9253 90.35V112.55C42.9253 113.083 42.8753 113.767 42.7753 114.6C42.7086 115.4 42.6253 116.067 42.5253 116.6C43.392 115.567 44.4586 115.05 45.7253 115.05H53.0753C54.3086 115.05 55.2586 115.35 55.9253 115.95C56.592 116.55 56.9253 117.417 56.9253 118.55C56.9253 120.85 55.642 122 53.0753 122H39.3253ZM70.6292 122.4C66.5959 122.4 63.5125 121.4 61.3792 119.4C59.2792 117.367 58.2292 114.317 58.2292 110.25V90.35C58.2292 87.75 59.4292 86.45 61.8292 86.45C64.2292 86.45 65.4292 87.75 65.4292 90.35V110.25C65.4292 112.35 65.8792 113.883 66.7792 114.85C67.7125 115.817 68.9959 116.3 70.6292 116.3C74.6292 116.3 76.6292 114.283 76.6292 110.25V90.35C76.6292 87.75 77.8292 86.45 80.2292 86.45C82.6292 86.45 83.8292 87.75 83.8292 90.35V110.25C83.8292 114.283 82.7125 117.317 80.4792 119.35C78.2459 121.383 74.9625 122.4 70.6292 122.4ZM97.4116 119.05C97.4116 121.283 96.245 122.4 93.9116 122.4C92.7783 122.4 91.8783 122.117 91.2116 121.55C90.545 120.983 90.2116 120.15 90.2116 119.05V98.4C90.2116 94.4667 91.045 91.5 92.7116 89.5C94.4116 87.4667 96.9116 86.45 100.212 86.45C102.645 86.45 104.662 86.95 106.262 87.95C107.862 88.95 108.928 90.3833 109.462 92.25C109.995 90.3833 111.062 88.95 112.662 87.95C114.262 86.95 116.312 86.45 118.812 86.45C122.212 86.45 124.728 87.4333 126.362 89.4C127.995 91.3333 128.812 94.3333 128.812 98.4V118.55C128.812 119.917 128.545 120.9 128.012 121.5C127.478 122.1 126.578 122.4 125.312 122.4C124.045 122.4 123.112 122.1 122.512 121.5C121.912 120.867 121.612 119.883 121.612 118.55V98C121.612 94.7 120.195 93.05 117.362 93.05C115.928 93.05 114.862 93.5333 114.162 94.5C113.462 95.4333 113.112 96.9333 113.112 99V118.05C113.112 119.417 112.845 120.4 112.312 121C111.778 121.6 110.878 121.9 109.612 121.9C108.345 121.9 107.412 121.6 106.812 121C106.212 120.367 105.912 119.383 105.912 118.05V99C105.912 95.0333 104.495 93.05 101.662 93.05C98.8283 93.05 97.4116 94.7 97.4116 98V119.05ZM139.376 122.4C136.91 122.4 135.676 121.283 135.676 119.05V89.8C135.676 88.6333 135.96 87.7833 136.526 87.25C137.093 86.7167 137.993 86.45 139.226 86.45C141.66 86.45 142.876 87.5667 142.876 89.8V119.05C142.876 120.183 142.593 121.033 142.026 121.6C141.493 122.133 140.61 122.4 139.376 122.4ZM156.933 119.05C156.933 121.283 155.766 122.4 153.433 122.4C152.3 122.4 151.4 122.117 150.733 121.55C150.066 120.983 149.733 120.15 149.733 119.05V98.4C149.733 94.4667 150.566 91.5 152.233 89.5C153.933 87.4667 156.433 86.45 159.733 86.45C162.166 86.45 164.183 86.95 165.783 87.95C167.383 88.95 168.45 90.3833 168.983 92.25C169.516 90.3833 170.583 88.95 172.183 87.95C173.783 86.95 175.833 86.45 178.333 86.45C181.733 86.45 184.25 87.4333 185.883 89.4C187.516 91.3333 188.333 94.3333 188.333 98.4V118.55C188.333 119.917 188.066 120.9 187.533 121.5C187 122.1 186.1 122.4 184.833 122.4C183.566 122.4 182.633 122.1 182.033 121.5C181.433 120.867 181.133 119.883 181.133 118.55V98C181.133 94.7 179.716 93.05 176.883 93.05C175.45 93.05 174.383 93.5333 173.683 94.5C172.983 95.4333 172.633 96.9333 172.633 99V118.05C172.633 119.417 172.366 120.4 171.833 121C171.3 121.6 170.4 121.9 169.133 121.9C167.866 121.9 166.933 121.6 166.333 121C165.733 120.367 165.433 119.383 165.433 118.05V99C165.433 95.0333 164.016 93.05 161.183 93.05C158.35 93.05 156.933 94.7 156.933 98V119.05ZM198.898 122.4C196.431 122.4 195.198 121.283 195.198 119.05V89.8C195.198 88.6333 195.481 87.7833 196.048 87.25C196.615 86.7167 197.515 86.45 198.748 86.45C201.181 86.45 202.398 87.5667 202.398 89.8V119.05C202.398 120.183 202.115 121.033 201.548 121.6C201.015 122.133 200.131 122.4 198.898 122.4ZM211.832 122.35C210.866 122.35 209.999 122.05 209.232 121.45C208.499 120.817 208.132 120.117 208.132 119.35C208.132 118.75 208.382 117.883 208.882 116.75C209.382 115.617 210.082 114.317 210.982 112.85C211.882 111.383 212.899 109.85 214.032 108.25C215.199 106.617 216.432 105.017 217.732 103.45L209.232 92.2C208.732 91.5333 208.482 90.8 208.482 90C208.482 88.9667 208.816 88.1167 209.482 87.45C210.182 86.7833 211.049 86.45 212.082 86.45C213.449 86.45 214.599 87.05 215.532 88.25L223.582 98.75C224.182 97.95 224.866 97 225.632 95.9C226.399 94.8 227.166 93.6667 227.932 92.5C228.699 91.3333 229.382 90.2333 229.982 89.2C231.016 87.4 232.149 86.5 233.382 86.5C234.449 86.5 235.299 86.7833 235.932 87.35C236.599 87.8833 236.932 88.6167 236.932 89.55C236.932 90.15 236.799 90.8 236.532 91.5C236.032 92.9 235.016 94.65 233.482 96.75C231.949 98.85 229.966 101.25 227.532 103.95L237.182 116.55C237.482 116.917 237.682 117.283 237.782 117.65C237.916 118.017 237.982 118.417 237.982 118.85C237.982 119.85 237.632 120.7 236.932 121.4C236.266 122.067 235.449 122.4 234.482 122.4C232.849 122.4 231.482 121.667 230.382 120.2L221.932 109C221.066 110.267 220.299 111.433 219.632 112.5C218.966 113.533 218.266 114.65 217.532 115.85C216.799 117.017 215.932 118.433 214.932 120.1C214.399 120.933 213.916 121.517 213.482 121.85C213.049 122.183 212.499 122.35 211.832 122.35Z" fill="#71B3FF"/>
</svg>
