<svg width="91" height="24" viewBox="0 0 91 24" fill="none" xmlns="http://www.w3.org/2000/svg">
<path d="M6.01588 19C5.05588 19 4.57588 18.48 4.57588 17.44V6.34C4.57588 5.3 5.05588 4.78 6.01588 4.78C6.97588 4.78 7.45588 5.3 7.45588 6.34V15.22C7.45588 15.4333 7.43588 15.7067 7.39588 16.04C7.36921 16.36 7.33588 16.6267 7.29588 16.84C7.64255 16.4267 8.06921 16.22 8.57588 16.22H11.5159C12.0092 16.22 12.3892 16.34 12.6559 16.58C12.9225 16.82 13.0559 17.1667 13.0559 17.62C13.0559 18.54 12.5425 19 11.5159 19H6.01588ZM18.5374 19.16C16.9241 19.16 15.6908 18.76 14.8374 17.96C13.9974 17.1467 13.5774 15.9267 13.5774 14.3V6.34C13.5774 5.3 14.0574 4.78 15.0174 4.78C15.9774 4.78 16.4574 5.3 16.4574 6.34V14.3C16.4574 15.14 16.6374 15.7533 16.9974 16.14C17.3708 16.5267 17.8841 16.72 18.5374 16.72C20.1374 16.72 20.9374 15.9133 20.9374 14.3V6.34C20.9374 5.3 21.4174 4.78 22.3774 4.78C23.3374 4.78 23.8174 5.3 23.8174 6.34V14.3C23.8174 15.9133 23.3708 17.1267 22.4774 17.94C21.5841 18.7533 20.2708 19.16 18.5374 19.16ZM29.2504 17.82C29.2504 18.7133 28.7837 19.16 27.8504 19.16C27.3971 19.16 27.0371 19.0467 26.7704 18.82C26.5037 18.5933 26.3704 18.26 26.3704 17.82V9.56C26.3704 7.98667 26.7037 6.8 27.3704 6C28.0504 5.18667 29.0504 4.78 30.3704 4.78C31.3437 4.78 32.1504 4.98 32.7904 5.38C33.4304 5.78 33.8571 6.35333 34.0704 7.1C34.2837 6.35333 34.7104 5.78 35.3504 5.38C35.9904 4.98 36.8104 4.78 37.8104 4.78C39.1704 4.78 40.1771 5.17333 40.8304 5.96C41.4837 6.73333 41.8104 7.93333 41.8104 9.56V17.62C41.8104 18.1667 41.7037 18.56 41.4904 18.8C41.2771 19.04 40.9171 19.16 40.4104 19.16C39.9037 19.16 39.5304 19.04 39.2904 18.8C39.0504 18.5467 38.9304 18.1533 38.9304 17.62V9.4C38.9304 8.08 38.3637 7.42 37.2304 7.42C36.6571 7.42 36.2304 7.61333 35.9504 8C35.6704 8.37333 35.5304 8.97333 35.5304 9.8V17.42C35.5304 17.9667 35.4237 18.36 35.2104 18.6C34.9971 18.84 34.6371 18.96 34.1304 18.96C33.6237 18.96 33.2504 18.84 33.0104 18.6C32.7704 18.3467 32.6504 17.9533 32.6504 17.42V9.8C32.6504 8.21333 32.0837 7.42 30.9504 7.42C29.8171 7.42 29.2504 8.08 29.2504 9.4V17.82ZM46.0363 19.16C45.0497 19.16 44.5563 18.7133 44.5563 17.82V6.12C44.5563 5.65333 44.6697 5.31333 44.8963 5.1C45.123 4.88667 45.483 4.78 45.9763 4.78C46.9497 4.78 47.4363 5.22667 47.4363 6.12V17.82C47.4363 18.2733 47.323 18.6133 47.0963 18.84C46.883 19.0533 46.5297 19.16 46.0363 19.16ZM53.059 17.82C53.059 18.7133 52.5923 19.16 51.659 19.16C51.2057 19.16 50.8457 19.0467 50.579 18.82C50.3123 18.5933 50.179 18.26 50.179 17.82V9.56C50.179 7.98667 50.5123 6.8 51.179 6C51.859 5.18667 52.859 4.78 54.179 4.78C55.1523 4.78 55.959 4.98 56.599 5.38C57.239 5.78 57.6657 6.35333 57.879 7.1C58.0923 6.35333 58.519 5.78 59.159 5.38C59.799 4.98 60.619 4.78 61.619 4.78C62.979 4.78 63.9857 5.17333 64.639 5.96C65.2923 6.73333 65.619 7.93333 65.619 9.56V17.62C65.619 18.1667 65.5123 18.56 65.299 18.8C65.0857 19.04 64.7257 19.16 64.219 19.16C63.7123 19.16 63.339 19.04 63.099 18.8C62.859 18.5467 62.739 18.1533 62.739 17.62V9.4C62.739 8.08 62.1723 7.42 61.039 7.42C60.4657 7.42 60.039 7.61333 59.759 8C59.479 8.37333 59.339 8.97333 59.339 9.8V17.42C59.339 17.9667 59.2323 18.36 59.019 18.6C58.8057 18.84 58.4457 18.96 57.939 18.96C57.4323 18.96 57.059 18.84 56.819 18.6C56.579 18.3467 56.459 17.9533 56.459 17.42V9.8C56.459 8.21333 55.8923 7.42 54.759 7.42C53.6257 7.42 53.059 8.08 53.059 9.4V17.82ZM69.8449 19.16C68.8583 19.16 68.3649 18.7133 68.3649 17.82V6.12C68.3649 5.65333 68.4783 5.31333 68.7049 5.1C68.9316 4.88667 69.2916 4.78 69.7849 4.78C70.7583 4.78 71.2449 5.22667 71.2449 6.12V17.82C71.2449 18.2733 71.1316 18.6133 70.9049 18.84C70.6916 19.0533 70.3383 19.16 69.8449 19.16ZM75.0187 19.14C74.632 19.14 74.2854 19.02 73.9787 18.78C73.6854 18.5267 73.5387 18.2467 73.5387 17.94C73.5387 17.7 73.6387 17.3533 73.8387 16.9C74.0387 16.4467 74.3187 15.9267 74.6787 15.34C75.0387 14.7533 75.4454 14.14 75.8987 13.5C76.3654 12.8467 76.8587 12.2067 77.3787 11.58L73.9787 7.08C73.7787 6.81333 73.6787 6.52 73.6787 6.2C73.6787 5.78667 73.812 5.44667 74.0787 5.18C74.3587 4.91333 74.7054 4.78 75.1187 4.78C75.6654 4.78 76.1254 5.02 76.4987 5.5L79.7187 9.7C79.9587 9.38 80.232 9 80.5387 8.56C80.8454 8.12 81.152 7.66667 81.4587 7.2C81.7654 6.73333 82.0387 6.29333 82.2787 5.88C82.692 5.16 83.1454 4.8 83.6387 4.8C84.0654 4.8 84.4054 4.91333 84.6587 5.14C84.9254 5.35333 85.0587 5.64667 85.0587 6.02C85.0587 6.26 85.0054 6.52 84.8987 6.8C84.6987 7.36 84.292 8.06 83.6787 8.9C83.0654 9.74 82.272 10.7 81.2987 11.78L85.1587 16.82C85.2787 16.9667 85.3587 17.1133 85.3987 17.26C85.452 17.4067 85.4787 17.5667 85.4787 17.74C85.4787 18.14 85.3387 18.48 85.0587 18.76C84.792 19.0267 84.4654 19.16 84.0787 19.16C83.4254 19.16 82.8787 18.8667 82.4387 18.28L79.0587 13.8C78.712 14.3067 78.4054 14.7733 78.1387 15.2C77.872 15.6133 77.592 16.06 77.2987 16.54C77.0054 17.0067 76.6587 17.5733 76.2587 18.24C76.0454 18.5733 75.852 18.8067 75.6787 18.94C75.5054 19.0733 75.2854 19.14 75.0187 19.14Z" fill="#0015FF"/>
<path d="M7.87306 19C6.91306 19 6.43306 18.48 6.43306 17.44V6.34C6.43306 5.3 6.91306 4.78 7.87306 4.78C8.83306 4.78 9.31306 5.3 9.31306 6.34V15.22C9.31306 15.4333 9.29306 15.7067 9.25306 16.04C9.22639 16.36 9.19306 16.6267 9.15306 16.84C9.49972 16.4267 9.92639 16.22 10.4331 16.22H13.3731C13.8664 16.22 14.2464 16.34 14.5131 16.58C14.7797 16.82 14.9131 17.1667 14.9131 17.62C14.9131 18.54 14.3997 19 13.3731 19H7.87306ZM20.3946 19.16C18.7813 19.16 17.548 18.76 16.6946 17.96C15.8546 17.1467 15.4346 15.9267 15.4346 14.3V6.34C15.4346 5.3 15.9146 4.78 16.8746 4.78C17.8346 4.78 18.3146 5.3 18.3146 6.34V14.3C18.3146 15.14 18.4946 15.7533 18.8546 16.14C19.228 16.5267 19.7413 16.72 20.3946 16.72C21.9946 16.72 22.7946 15.9133 22.7946 14.3V6.34C22.7946 5.3 23.2746 4.78 24.2346 4.78C25.1946 4.78 25.6746 5.3 25.6746 6.34V14.3C25.6746 15.9133 25.228 17.1267 24.3346 17.94C23.4413 18.7533 22.128 19.16 20.3946 19.16ZM31.1076 17.82C31.1076 18.7133 30.6409 19.16 29.7076 19.16C29.2543 19.16 28.8943 19.0467 28.6276 18.82C28.3609 18.5933 28.2276 18.26 28.2276 17.82V9.56C28.2276 7.98667 28.5609 6.8 29.2276 6C29.9076 5.18667 30.9076 4.78 32.2276 4.78C33.2009 4.78 34.0076 4.98 34.6476 5.38C35.2876 5.78 35.7143 6.35333 35.9276 7.1C36.1409 6.35333 36.5676 5.78 37.2076 5.38C37.8476 4.98 38.6676 4.78 39.6676 4.78C41.0276 4.78 42.0343 5.17333 42.6876 5.96C43.3409 6.73333 43.6676 7.93333 43.6676 9.56V17.62C43.6676 18.1667 43.5609 18.56 43.3476 18.8C43.1343 19.04 42.7743 19.16 42.2676 19.16C41.7609 19.16 41.3876 19.04 41.1476 18.8C40.9076 18.5467 40.7876 18.1533 40.7876 17.62V9.4C40.7876 8.08 40.2209 7.42 39.0876 7.42C38.5143 7.42 38.0876 7.61333 37.8076 8C37.5276 8.37333 37.3876 8.97333 37.3876 9.8V17.42C37.3876 17.9667 37.2809 18.36 37.0676 18.6C36.8543 18.84 36.4943 18.96 35.9876 18.96C35.4809 18.96 35.1076 18.84 34.8676 18.6C34.6276 18.3467 34.5076 17.9533 34.5076 17.42V9.8C34.5076 8.21333 33.9409 7.42 32.8076 7.42C31.6743 7.42 31.1076 8.08 31.1076 9.4V17.82ZM47.8935 19.16C46.9069 19.16 46.4135 18.7133 46.4135 17.82V6.12C46.4135 5.65333 46.5269 5.31333 46.7535 5.1C46.9802 4.88667 47.3402 4.78 47.8335 4.78C48.8069 4.78 49.2935 5.22667 49.2935 6.12V17.82C49.2935 18.2733 49.1802 18.6133 48.9535 18.84C48.7402 19.0533 48.3869 19.16 47.8935 19.16ZM54.9162 17.82C54.9162 18.7133 54.4495 19.16 53.5162 19.16C53.0628 19.16 52.7028 19.0467 52.4362 18.82C52.1695 18.5933 52.0362 18.26 52.0362 17.82V9.56C52.0362 7.98667 52.3695 6.8 53.0362 6C53.7162 5.18667 54.7162 4.78 56.0362 4.78C57.0095 4.78 57.8162 4.98 58.4562 5.38C59.0962 5.78 59.5228 6.35333 59.7362 7.1C59.9495 6.35333 60.3762 5.78 61.0162 5.38C61.6562 4.98 62.4762 4.78 63.4762 4.78C64.8362 4.78 65.8428 5.17333 66.4962 5.96C67.1495 6.73333 67.4762 7.93333 67.4762 9.56V17.62C67.4762 18.1667 67.3695 18.56 67.1562 18.8C66.9428 19.04 66.5828 19.16 66.0762 19.16C65.5695 19.16 65.1962 19.04 64.9562 18.8C64.7162 18.5467 64.5962 18.1533 64.5962 17.62V9.4C64.5962 8.08 64.0295 7.42 62.8962 7.42C62.3228 7.42 61.8962 7.61333 61.6162 8C61.3362 8.37333 61.1962 8.97333 61.1962 9.8V17.42C61.1962 17.9667 61.0895 18.36 60.8762 18.6C60.6628 18.84 60.3028 18.96 59.7962 18.96C59.2895 18.96 58.9162 18.84 58.6762 18.6C58.4362 18.3467 58.3162 17.9533 58.3162 17.42V9.8C58.3162 8.21333 57.7495 7.42 56.6162 7.42C55.4828 7.42 54.9162 8.08 54.9162 9.4V17.82ZM71.7021 19.16C70.7155 19.16 70.2221 18.7133 70.2221 17.82V6.12C70.2221 5.65333 70.3355 5.31333 70.5621 5.1C70.7888 4.88667 71.1488 4.78 71.6421 4.78C72.6155 4.78 73.1021 5.22667 73.1021 6.12V17.82C73.1021 18.2733 72.9888 18.6133 72.7621 18.84C72.5488 19.0533 72.1955 19.16 71.7021 19.16ZM76.8759 19.14C76.4892 19.14 76.1425 19.02 75.8359 18.78C75.5425 18.5267 75.3959 18.2467 75.3959 17.94C75.3959 17.7 75.4959 17.3533 75.6959 16.9C75.8959 16.4467 76.1759 15.9267 76.5359 15.34C76.8959 14.7533 77.3025 14.14 77.7559 13.5C78.2225 12.8467 78.7159 12.2067 79.2359 11.58L75.8359 7.08C75.6359 6.81333 75.5359 6.52 75.5359 6.2C75.5359 5.78667 75.6692 5.44667 75.9359 5.18C76.2159 4.91333 76.5625 4.78 76.9759 4.78C77.5225 4.78 77.9825 5.02 78.3559 5.5L81.5759 9.7C81.8159 9.38 82.0892 9 82.3959 8.56C82.7025 8.12 83.0092 7.66667 83.3159 7.2C83.6225 6.73333 83.8959 6.29333 84.1359 5.88C84.5492 5.16 85.0025 4.8 85.4959 4.8C85.9225 4.8 86.2625 4.91333 86.5159 5.14C86.7825 5.35333 86.9159 5.64667 86.9159 6.02C86.9159 6.26 86.8625 6.52 86.7559 6.8C86.5559 7.36 86.1492 8.06 85.5359 8.9C84.9225 9.74 84.1292 10.7 83.1559 11.78L87.0159 16.82C87.1359 16.9667 87.2159 17.1133 87.2559 17.26C87.3092 17.4067 87.3359 17.5667 87.3359 17.74C87.3359 18.14 87.1959 18.48 86.9159 18.76C86.6492 19.0267 86.3225 19.16 85.9359 19.16C85.2825 19.16 84.7359 18.8667 84.2959 18.28L80.9159 13.8C80.5692 14.3067 80.2625 14.7733 79.9959 15.2C79.7292 15.6133 79.4492 16.06 79.1559 16.54C78.8625 17.0067 78.5159 17.5733 78.1159 18.24C77.9025 18.5733 77.7092 18.8067 77.5359 18.94C77.3625 19.0733 77.1425 19.14 76.8759 19.14Z" fill="#71B3FF"/>
</svg>
