<svg width="20" height="31" fill="none" xmlns="http://www.w3.org/2000/svg"><path d="M2.34 30.21c-.34 0-.62-.09-.84-.27-.2-.18-.32-.4-.36-.66-.02-.26.08-.52.3-.78l7.26-9.78v.93l-6.84-9.24c-.22-.3-.32-.58-.3-.84a.96.96 0 01.33-.66c.22-.18.48-.27.78-.27.28 0 .52.06.72.18.2.12.41.33.63.63l6.15 8.43h-.78l6.12-8.43c.2-.3.4-.51.6-.63.2-.12.44-.18.72-.18.32 0 .58.09.78.27.22.16.34.38.36.66.02.26-.08.54-.3.84l-6.84 9.24v-.93l7.26 9.78c.2.26.28.52.24.78a.96.96 0 01-.33.66c-.2.18-.47.27-.81.27-.26 0-.5-.07-.72-.21-.2-.12-.41-.32-.63-.6l-6.57-8.97h.96L3.66 29.4c-.2.28-.41.48-.63.6-.22.14-.45.21-.69.21z" fill="#0015FF"/></svg>