<svg width="14" height="14" viewBox="0 0 14 14" fill="none" xmlns="http://www.w3.org/2000/svg">
<path d="M12.559 4.20177C12.4927 3.95526 12.3632 3.73044 12.1834 3.54971C12.0036 3.36897 11.7798 3.23861 11.5341 3.17161C10.6233 2.92077 6.97942 2.91669 6.97942 2.91669C6.97942 2.91669 3.33612 2.91261 2.42472 3.15236C2.17923 3.22244 1.95582 3.35464 1.77595 3.53627C1.59608 3.71789 1.46578 3.94285 1.39757 4.18952C1.15736 5.10303 1.15503 6.99769 1.15503 6.99769C1.15503 6.99769 1.1527 8.90169 1.39117 9.80586C1.52494 10.3058 1.91754 10.7007 2.41657 10.8354C3.33671 11.0863 6.9707 11.0904 6.9707 11.0904C6.9707 11.0904 10.6146 11.0944 11.5254 10.8553C11.7711 10.7884 11.9952 10.6583 12.1755 10.478C12.3557 10.2976 12.4859 10.0732 12.5531 9.82686C12.7939 8.91394 12.7957 7.01986 12.7957 7.01986C12.7957 7.01986 12.8073 5.11527 12.559 4.20177ZM5.81385 8.75294L5.81675 5.25294L8.84528 7.00586L5.81385 8.75294Z" fill="white"/>
</svg>
